<svg width="44" height="44" viewBox="0 0 44 44" fill="none" xmlns="http://www.w3.org/2000/svg">
<rect width="44" height="44" rx="10" fill="#FF6900"/>
<path d="M30.2303 21.0784C30.2019 20.9582 30.1443 20.8469 30.0625 20.7543C29.9807 20.6618 29.8773 20.5908 29.7616 20.5478L24.3606 18.5219L25.735 11.6472C25.7661 11.4875 25.7444 11.3219 25.6732 11.1756C25.602 11.0293 25.4852 10.9101 25.3403 10.836C25.1954 10.7619 25.0303 10.7369 24.87 10.7649C24.7097 10.7929 24.5628 10.8722 24.4516 10.9909L13.9516 22.2409C13.8663 22.3308 13.8046 22.4404 13.772 22.5599C13.7394 22.6794 13.7369 22.8052 13.7648 22.9259C13.7926 23.0466 13.85 23.1585 13.9316 23.2517C14.0133 23.3448 14.1168 23.4163 14.2328 23.4597L19.6356 25.4856L18.265 32.3528C18.2339 32.5125 18.2556 32.6781 18.3268 32.8244C18.398 32.9707 18.5148 33.0899 18.6597 33.164C18.8046 33.2381 18.9697 33.263 19.13 33.2351C19.2903 33.2071 19.4372 33.1278 19.5484 33.0091L30.0484 21.7591C30.1322 21.6692 30.1926 21.5601 30.2243 21.4414C30.256 21.3228 30.2581 21.1981 30.2303 21.0784ZM20.2534 30.0625L21.235 25.1519C21.2701 24.9777 21.2423 24.7967 21.1564 24.6412C21.0706 24.4856 20.9323 24.3656 20.7662 24.3025L15.8125 22.4416L23.7456 13.9422L22.765 18.8528C22.7299 19.027 22.7577 19.2079 22.8436 19.3635C22.9294 19.519 23.0677 19.6391 23.2338 19.7022L28.1838 21.5584L20.2534 30.0625Z" fill="white"/>
</svg>
