<svg width="44" height="44" viewBox="0 0 44 44" fill="none" xmlns="http://www.w3.org/2000/svg">
<rect width="44" height="44" rx="10" fill="#FF6900"/>
<path d="M32.5 15.25V21.25C32.5 21.4489 32.421 21.6397 32.2803 21.7803C32.1397 21.921 31.9489 22 31.75 22C31.5511 22 31.3603 21.921 31.2197 21.7803C31.079 21.6397 31 21.4489 31 21.25V17.0603L23.2806 24.7806C23.211 24.8504 23.1282 24.9057 23.0372 24.9434C22.9461 24.9812 22.8486 25.0006 22.75 25.0006C22.6514 25.0006 22.5538 24.9812 22.4628 24.9434C22.3717 24.9057 22.289 24.8504 22.2194 24.7806L19 21.5603L12.7806 27.7806C12.6399 27.9214 12.449 28.0004 12.25 28.0004C12.051 28.0004 11.8601 27.9214 11.7194 27.7806C11.5786 27.6399 11.4996 27.449 11.4996 27.25C11.4996 27.051 11.5786 26.8601 11.7194 26.7194L18.4694 19.9694C18.539 19.8996 18.6217 19.8443 18.7128 19.8066C18.8038 19.7688 18.9014 19.7494 19 19.7494C19.0986 19.7494 19.1961 19.7688 19.2872 19.8066C19.3782 19.8443 19.461 19.8996 19.5306 19.9694L22.75 23.1897L29.9397 16H25.75C25.5511 16 25.3603 15.921 25.2197 15.7803C25.079 15.6397 25 15.4489 25 15.25C25 15.0511 25.079 14.8603 25.2197 14.7197C25.3603 14.579 25.5511 14.5 25.75 14.5H31.75C31.9489 14.5 32.1397 14.579 32.2803 14.7197C32.421 14.8603 32.5 15.0511 32.5 15.25Z" fill="white"/>
</svg>
